# xmcd CD database file
# Copyright (C) 1995-1998 Ti Kan
#
# Track frame offsets:
#	150
#	18103
#	32443
#	46931
#	67496
#	87670
#	100806
#	115969
#	144798
#	160486
#	174345
#	191974
#	205501
#	220324
#	242257
#	257473
#	280231
#	304697
#	328686
#
# Disc length: 4632 seconds
#
# Revision: 1
# Processed by: cddbd v1.4PL0 Copyright (c) Steve Scherf et al.
# Submitted via: CDex 1.30Release
#
DISCID=08121613
DTITLE=Chet Atkins - The Best Of Chet Atkins
DYEAR=2001
DGENRE=Country
TTITLE0=Poor Boy Blues (with Mark Knopfler)
TTITLE1=Young Thing
TTITLE2=Cheek To Cheek
TTITLE3=Dream
TTITLE4=Read My Licks
TTITLE5=I Still Write Your Name In The Snow
TTITLE6=Ave Maria
TTITLE7=There'll Be Some Changes Made (with Mark Knopfler)
TTITLE8=After You've Gone
TTITLE9=Love Letter
TTITLE10=Pu, Uana Hula (Remembering Gabby)
TTITLE11=Every Now And Then
TTITLE12=Jam Man
TTITLE13=Sometime, Someplace
TTITLE14=Sweet Dreams (with Mark Knopfler)
TTITLE15=My Song
TTITLE16=Laffin' At Life
TTITLE17=On A Roll
TTITLE18=Sunrise (with George Benson)
EXTD=YEAR: 2001 ID3G:   2
EXTT0=
EXTT1=
EXTT2=
EXTT3=
EXTT4=
EXTT5=
EXTT6=
EXTT7=
EXTT8=
EXTT9=
EXTT10=
EXTT11=
EXTT12=
EXTT13=
EXTT14=
EXTT15=
EXTT16=
EXTT17=
EXTT18=
PLAYORDER=
